<?xml version="1.0" encoding="UTF-8"?>
<svg id="Capa_1" data-name="Capa 1" xmlns="http://www.w3.org/2000/svg" viewBox="0 0 473.93 174.06">
  <defs>
    <style>
      .cls-1 {
        letter-spacing: .03em;
      }

      .cls-2 {
        letter-spacing: 0em;
      }

      .cls-3 {
        letter-spacing: -.02em;
      }

      .cls-4 {
        letter-spacing: 0em;
      }

      .cls-5 {
        letter-spacing: -.03em;
      }

      .cls-6 {
        letter-spacing: -.02em;
      }

      .cls-7 {
        letter-spacing: 0em;
      }

      .cls-8 {
        letter-spacing: 0em;
      }

      .cls-9 {
        letter-spacing: 0em;
      }

      .cls-10 {
        letter-spacing: 0em;
      }

      .cls-11 {
        letter-spacing: -.01em;
      }

      .cls-12 {
        letter-spacing: 0em;
      }

      .cls-13 {
        letter-spacing: 0em;
      }

      .cls-14 {
        letter-spacing: 0em;
      }

      .cls-15 {
        letter-spacing: -.08em;
      }

      .cls-16 {
        font-family: Tahoma-Bold, Tahoma;
        font-weight: 700;
      }

      .cls-16, .cls-17, .cls-18 {
        font-size: 10px;
      }

      .cls-16, .cls-17, .cls-18, .cls-19 {
        fill: #181716;
      }

      .cls-20 {
        letter-spacing: -.04em;
      }

      .cls-21 {
        letter-spacing: -.01em;
      }

      .cls-22 {
        letter-spacing: 0em;
      }

      .cls-23 {
        letter-spacing: -.04em;
      }

      .cls-24 {
        letter-spacing: 0em;
      }

      .cls-25 {
        letter-spacing: .02em;
      }

      .cls-26 {
        letter-spacing: -.02em;
      }

      .cls-27 {
        letter-spacing: .03em;
      }

      .cls-28 {
        letter-spacing: -.02em;
      }

      .cls-29 {
        letter-spacing: -.03em;
      }

      .cls-30 {
        letter-spacing: 0em;
      }

      .cls-31 {
        letter-spacing: -.02em;
      }

      .cls-32 {
        letter-spacing: -.01em;
      }

      .cls-33 {
        letter-spacing: 0em;
      }

      .cls-34 {
        letter-spacing: 0em;
      }

      .cls-35 {
        letter-spacing: -.02em;
      }

      .cls-36 {
        letter-spacing: -.02em;
      }

      .cls-37 {
        letter-spacing: -.08em;
      }

      .cls-38 {
        letter-spacing: 0em;
      }

      .cls-39 {
        letter-spacing: 0em;
      }

      .cls-40 {
        letter-spacing: 0em;
      }

      .cls-41 {
        letter-spacing: -.07em;
      }

      .cls-42 {
        letter-spacing: -.04em;
      }

      .cls-43 {
        letter-spacing: -.01em;
      }

      .cls-44 {
        letter-spacing: -.01em;
      }

      .cls-45 {
        letter-spacing: -.01em;
      }

      .cls-46 {
        letter-spacing: 0em;
      }

      .cls-17 {
        font-family: SitkaSmall-Italic, 'SitkaSmall Italic';
        font-style: italic;
      }

      .cls-47 {
        letter-spacing: -.01em;
      }

      .cls-48 {
        letter-spacing: -.02em;
      }

      .cls-49 {
        letter-spacing: 0em;
      }

      .cls-50 {
        letter-spacing: -.06em;
      }

      .cls-51 {
        letter-spacing: 0em;
      }

      .cls-52 {
        letter-spacing: 0em;
      }

      .cls-53 {
        letter-spacing: -.01em;
      }

      .cls-54 {
        letter-spacing: -.04em;
      }

      .cls-55 {
        letter-spacing: -.01em;
      }

      .cls-56 {
        letter-spacing: 0em;
      }

      .cls-57 {
        letter-spacing: -.04em;
      }

      .cls-58 {
        letter-spacing: -.02em;
      }

      .cls-59 {
        letter-spacing: -.02em;
      }

      .cls-60 {
        letter-spacing: 0em;
      }

      .cls-61 {
        letter-spacing: 0em;
      }

      .cls-62 {
        letter-spacing: 0em;
      }

      .cls-63 {
        letter-spacing: 0em;
      }

      .cls-64 {
        fill: none;
        stroke: #181716;
        stroke-miterlimit: 10;
        stroke-width: .75px;
      }

      .cls-18, .cls-19 {
        font-family: Tahoma, Tahoma;
      }

      .cls-65 {
        letter-spacing: .01em;
      }

      .cls-66 {
        letter-spacing: -.09em;
      }

      .cls-67 {
        letter-spacing: 0em;
      }

      .cls-68 {
        letter-spacing: -.01em;
      }

      .cls-69 {
        letter-spacing: 0em;
      }

      .cls-70 {
        letter-spacing: -.01em;
      }

      .cls-71 {
        letter-spacing: -.02em;
      }

      .cls-72 {
        letter-spacing: -.04em;
      }

      .cls-73 {
        letter-spacing: -.01em;
      }

      .cls-74 {
        letter-spacing: .01em;
      }

      .cls-19 {
        font-size: 7.58px;
      }

      .cls-75 {
        letter-spacing: .01em;
      }

      .cls-76 {
        letter-spacing: -.02em;
      }
    </style>
  </defs>
  <text class="cls-18" transform="translate(0 8.63)"><tspan class="cls-49" x="0" y="0">P</tspan><tspan class="cls-30" x="5.44" y="0">a</tspan><tspan class="cls-34" x="10.64" y="0">r</tspan><tspan x="14.22" y="0">a </tspan><tspan class="cls-2" x="22.59" y="0">m</tspan><tspan class="cls-8" x="31" y="0">o</tspan><tspan x="36.52" y="0">d</tspan><tspan class="cls-62" x="42.04" y="0">e</tspan><tspan class="cls-46" x="47.36" y="0">la</tspan><tspan x="54.79" y="0">r </tspan><tspan class="cls-46" x="61.52" y="0">l</tspan><tspan x="63.76" y="0">a </tspan><tspan class="cls-12" x="72.13" y="0">c</tspan><tspan class="cls-24" x="76.78" y="0">u</tspan><tspan class="cls-27" x="82.3" y="0">r</tspan><tspan class="cls-38" x="86.2" y="0">v</tspan><tspan x="91.16" y="0">a </tspan><tspan class="cls-39" x="99.54" y="0">d</tspan><tspan x="105.06" y="0">e </tspan><tspan class="cls-24" x="113.44" y="0">u</tspan><tspan class="cls-46" x="118.96" y="0">n</tspan><tspan x="124.49" y="0">a </tspan><tspan class="cls-2" x="132.86" y="0">mo</tspan><tspan class="cls-49" x="146.71" y="0">n</tspan><tspan class="cls-65" x="152.22" y="0">t</tspan><tspan class="cls-46" x="155.71" y="0">añ</tspan><tspan x="166.44" y="0">a r</tspan><tspan class="cls-56" x="178.41" y="0">u</tspan><tspan class="cls-75" x="184.01" y="0">s</tspan><tspan x="188.58" y="0">a </tspan><tspan class="cls-24" x="196.96" y="0">q</tspan><tspan x="202.42" y="0">ue </tspan><tspan class="cls-14" x="216.39" y="0">s</tspan><tspan x="220.92" y="0">e </tspan><tspan class="cls-52" x="229.31" y="0">p</tspan><tspan class="cls-46" x="234.85" y="0">la</tspan><tspan x="242.28" y="0">n</tspan><tspan class="cls-60" x="247.86" y="0">e</tspan><tspan x="253.14" y="0">a </tspan><tspan class="cls-62" x="261.52" y="0">c</tspan><tspan class="cls-2" x="266.18" y="0">o</tspan><tspan class="cls-60" x="271.62" y="0">n</tspan><tspan class="cls-4" x="277.22" y="0">s</tspan><tspan class="cls-2" x="281.78" y="0">tr</tspan><tspan class="cls-9" x="288.75" y="0">ui</tspan><tspan class="cls-15" x="296.47" y="0">r</tspan><tspan x="299.22" y="0">, </tspan><tspan class="cls-13" x="305.37" y="0">s</tspan><tspan x="309.91" y="0">e </tspan><tspan class="cls-67" x="318.3" y="0">u</tspan><tspan x="323.84" y="0">t</tspan><tspan class="cls-22" x="327.19" y="0">il</tspan><tspan class="cls-69" x="331.6" y="0">i</tspan><tspan class="cls-12" x="333.78" y="0">z</tspan><tspan x="338.27" y="0">a </tspan><tspan class="cls-12" x="346.64" y="0">e</tspan><tspan x="351.94" y="0">l s</tspan><tspan class="cls-33" x="361.82" y="0">i</tspan><tspan class="cls-46" x="364.09" y="0">g</tspan><tspan class="cls-9" x="369.57" y="0">u</tspan><tspan class="cls-39" x="375.07" y="0">i</tspan><tspan class="cls-62" x="377.35" y="0">e</tspan><tspan class="cls-51" x="382.66" y="0">n</tspan><tspan x="388.17" y="0">te </tspan><tspan class="cls-40" x="399.9" y="0">p</tspan><tspan class="cls-2" x="405.52" y="0">o</tspan><tspan class="cls-22" x="410.96" y="0">l</tspan><tspan class="cls-7" x="413.16" y="0">i</tspan><tspan class="cls-56" x="415.39" y="0">n</tspan><tspan class="cls-52" x="420.99" y="0">o</tspan><tspan class="cls-10" x="426.43" y="0">m</tspan><tspan class="cls-39" x="434.76" y="0">i</tspan><tspan class="cls-72" x="437.04" y="0">o</tspan><tspan x="442.09" y="0">:</tspan></text>
  <text class="cls-18" transform="translate(186.49 28.13)"><tspan x="0" y="0">1</tspan></text>
  <text class="cls-17" transform="translate(144.04 52.21)"><tspan x="0" y="0">p</tspan></text>
  <text class="cls-18" transform="translate(150.34 52.21)"><tspan x="0" y="0">(</tspan></text>
  <text class="cls-17" transform="translate(153.6 52.21)"><tspan x="0" y="0">x</tspan></text>
  <text class="cls-18" transform="translate(158.87 52.21)"><tspan x="0" y="0">) =</tspan></text>
  <text class="cls-18" transform="translate(181.18 42.83)"><tspan class="cls-57" x="0" y="0">1</tspan><tspan class="cls-74" x="5.03" y="0">0</tspan><tspan x="10.61" y="0">0</tspan></text>
  <line class="cls-64" x1="180.24" y1="31.71" x2="198.71" y2="31.71"/>
  <line class="cls-64" x1="180.24" y1="48.89" x2="330.47" y2="48.89"/>
  <text class="cls-17" transform="translate(199.99 34.81)"><tspan x="0" y="0">x</tspan></text>
  <text class="cls-19" transform="translate(205.79 32.47)"><tspan x="0" y="0">4</tspan></text>
  <text class="cls-18" transform="translate(214.46 34.8)"><tspan x="0" y="0">–</tspan></text>
  <text class="cls-18" transform="translate(229.8 28.12)"><tspan class="cls-29" x="0" y="0">1</tspan><tspan x="5.21" y="0">2</tspan></text>
  <text class="cls-18" transform="translate(229.89 42.83)"><tspan class="cls-23" x="0" y="0">1</tspan><tspan x="5.03" y="0">0</tspan></text>
  <line class="cls-64" x1="226.15" y1="31.71" x2="244.62" y2="31.71"/>
  <text class="cls-16" transform="translate(.62 117.5)"><tspan class="cls-1" x="0" y="0">A</tspan><tspan x="7.12" y="0">.</tspan></text>
  <text class="cls-17" transform="translate(246.8 34.81)"><tspan x="0" y="0">x</tspan></text>
  <text class="cls-19" transform="translate(252.8 32.47)"><tspan x="0" y="0">3</tspan></text>
  <text class="cls-18" transform="translate(260.26 34.8)"><tspan x="0" y="0">+</tspan></text>
  <text class="cls-18" transform="translate(271.5 34.8)"><tspan class="cls-46" x="0" y="0">3</tspan><tspan x="5.41" y="0">6</tspan></text>
  <text class="cls-17" transform="translate(282.35 34.8)"><tspan x="0" y="0">x</tspan></text>
  <text class="cls-19" transform="translate(288.36 32.47)"><tspan x="0" y="0">2</tspan></text>
  <text class="cls-18" transform="translate(295.61 34.8)"><tspan x="0" y="0">+</tspan></text>
  <text class="cls-18" transform="translate(305.48 34.8)"><tspan class="cls-23" x="0" y="0">1</tspan><tspan class="cls-74" x="5.03" y="0">0</tspan><tspan x="10.61" y="0">0</tspan></text>
  <text class="cls-17" transform="translate(321.45 34.8)"><tspan x="0" y="0">x</tspan></text>
  <text class="cls-18" transform="translate(24.23 125.52)"><tspan class="cls-37" x="0" y="0">1</tspan><tspan class="cls-41" x="4.67" y="0">.</tspan><tspan class="cls-20" x="6.99" y="0">00</tspan><tspan x="17.18" y="0">0</tspan></text>
  <line class="cls-64" x1="26.56" y1="114.4" x2="45.03" y2="114.4"/>
  <text class="cls-18" transform="translate(32.81 110.81)"><tspan x="0" y="0">1</tspan></text>
  <text class="cls-17" transform="translate(46.21 117.49)"><tspan x="0" y="0">x</tspan></text>
  <text class="cls-19" transform="translate(52.21 115.16)"><tspan x="0" y="0">3</tspan></text>
  <text class="cls-18" transform="translate(60.78 117.49)"><tspan x="0" y="0">–</tspan></text>
  <text class="cls-18" transform="translate(76.12 110.81)"><tspan class="cls-29" x="0" y="0">1</tspan><tspan x="5.21" y="0">2</tspan></text>
  <text class="cls-17" transform="translate(93.12 117.49)"><tspan x="0" y="0">x</tspan></text>
  <text class="cls-19" transform="translate(99.12 115.16)"><tspan x="0" y="0">2</tspan></text>
  <text class="cls-18" transform="translate(106.58 117.49)"><tspan x="0" y="0">+</tspan></text>
  <text class="cls-18" transform="translate(73.41 125.52)"><tspan class="cls-57" x="0" y="0">1</tspan><tspan class="cls-74" x="5.03" y="0">0</tspan><tspan x="10.61" y="0">0</tspan></text>
  <line class="cls-64" x1="72.47" y1="114.4" x2="90.94" y2="114.4"/>
  <text class="cls-18" transform="translate(121.67 110.81)"><tspan class="cls-46" x="0" y="0">3</tspan><tspan x="5.41" y="0">6</tspan></text>
  <text class="cls-17" transform="translate(138.15 117.49)"><tspan x="0" y="0">x</tspan></text>
  <text class="cls-18" transform="translate(146.94 117.49)"><tspan x="0" y="0">+</tspan></text>
  <text class="cls-18" transform="translate(157.44 117.49)"><tspan class="cls-57" x="0" y="0">1</tspan><tspan x="5.03" y="0">0</tspan></text>
  <line class="cls-64" x1="118.12" y1="114.4" x2="136.59" y2="114.4"/>
  <text class="cls-18" transform="translate(121.86 125.52)"><tspan class="cls-57" x="0" y="0">1</tspan><tspan x="5.03" y="0">0</tspan></text>
  <text class="cls-16" transform="translate(.62 161.84)"><tspan class="cls-25" x="0" y="0">C</tspan><tspan x="6.9" y="0">.</tspan></text>
  <text class="cls-18" transform="translate(32.81 155.16)"><tspan x="0" y="0">1</tspan></text>
  <text class="cls-18" transform="translate(27.5 169.87)"><tspan class="cls-57" x="0" y="0">1</tspan><tspan class="cls-74" x="5.03" y="0">0</tspan><tspan x="10.61" y="0">0</tspan></text>
  <line class="cls-64" x1="26.56" y1="158.74" x2="45.03" y2="158.74"/>
  <text class="cls-17" transform="translate(46.2 161.84)"><tspan x="0" y="0">x</tspan></text>
  <text class="cls-19" transform="translate(52.21 159.5)"><tspan x="0" y="0">3</tspan></text>
  <text class="cls-18" transform="translate(60.78 161.83)"><tspan x="0" y="0">–</tspan></text>
  <text class="cls-18" transform="translate(76.12 155.15)"><tspan class="cls-29" x="0" y="0">1</tspan><tspan x="5.21" y="0">2</tspan></text>
  <text class="cls-18" transform="translate(76.21 169.86)"><tspan class="cls-57" x="0" y="0">1</tspan><tspan x="5.03" y="0">0</tspan></text>
  <line class="cls-64" x1="72.47" y1="158.74" x2="90.94" y2="158.74"/>
  <text class="cls-16" transform="translate(272.92 117.49)"><tspan class="cls-13" x="0" y="0">B</tspan><tspan x="6.93" y="0">.</tspan></text>
  <text class="cls-18" transform="translate(305.11 110.8)"><tspan x="0" y="0">1</tspan></text>
  <text class="cls-17" transform="translate(93.12 161.83)"><tspan x="0" y="0">x</tspan></text>
  <text class="cls-19" transform="translate(99.12 159.5)"><tspan x="0" y="0">2</tspan></text>
  <text class="cls-18" transform="translate(106.58 161.83)"><tspan x="0" y="0">+</tspan></text>
  <text class="cls-18" transform="translate(121.67 162.15)"><tspan class="cls-46" x="0" y="0">3</tspan><tspan x="5.41" y="0">6</tspan></text>
  <text class="cls-17" transform="translate(133.15 161.83)"><tspan x="0" y="0">x</tspan></text>
  <text class="cls-18" transform="translate(143.94 161.83)"><tspan x="0" y="0">+</tspan></text>
  <text class="cls-18" transform="translate(154.64 161.83)"><tspan class="cls-57" x="0" y="0">1</tspan><tspan class="cls-74" x="5.03" y="0">0</tspan><tspan x="10.61" y="0">0</tspan></text>
  <text class="cls-18" transform="translate(296.53 125.51)"><tspan class="cls-37" x="0" y="0">1</tspan><tspan class="cls-41" x="4.67" y="0">.</tspan><tspan class="cls-42" x="6.99" y="0">00</tspan><tspan x="17.18" y="0">0</tspan></text>
  <text class="cls-18" transform="translate(254.39 61.86)"><tspan class="cls-23" x="0" y="0">1</tspan><tspan x="5.03" y="0">0</tspan></text>
  <text class="cls-17" transform="translate(264.77 61.86)"><tspan x="0" y="0">x</tspan></text>
  <text class="cls-18" transform="translate(0 84.23)"><tspan class="cls-54" x="0" y="0">¿</tspan><tspan class="cls-32" x="4.33" y="0">C</tspan><tspan class="cls-28" x="10.2" y="0">u</tspan><tspan class="cls-31" x="15.61" y="0">á</tspan><tspan class="cls-45" x="20.68" y="0">l</tspan><tspan class="cls-11" x="22.84" y="0"> </tspan><tspan class="cls-53" x="25.86" y="0">de</tspan><tspan class="cls-11" x="36.41" y="0"> </tspan><tspan class="cls-28" x="39.42" y="0">l</tspan><tspan class="cls-63" x="41.54" y="0">a</tspan><tspan class="cls-53" x="46.7" y="0">s</tspan><tspan class="cls-70" x="51.04" y="0" xml:space="preserve"> s</tspan><tspan class="cls-73" x="58.41" y="0">i</tspan><tspan class="cls-28" x="60.56" y="0">g</tspan><tspan class="cls-26" x="65.92" y="0">u</tspan><tspan class="cls-32" x="71.31" y="0">i</tspan><tspan class="cls-24" x="73.46" y="0">e</tspan><tspan class="cls-26" x="78.67" y="0">n</tspan><tspan class="cls-53" x="84.05" y="0">t</tspan><tspan x="87.28" y="0">e</tspan><tspan class="cls-53" x="92.54" y="0">s</tspan><tspan class="cls-70" x="96.88" y="0"> </tspan><tspan class="cls-61" x="99.9" y="0">e</tspan><tspan class="cls-53" x="105.12" y="0">x</tspan><tspan class="cls-69" x="109.95" y="0">pr</tspan><tspan x="118.88" y="0">e</tspan><tspan class="cls-70" x="124.15" y="0">s</tspan><tspan class="cls-73" x="128.5" y="0">i</tspan><tspan class="cls-68" x="130.66" y="0">o</tspan><tspan class="cls-70" x="135.99" y="0">n</tspan><tspan x="141.45" y="0">e</tspan><tspan class="cls-53" x="146.72" y="0">s </tspan><tspan x="154.06" y="0">e</tspan><tspan class="cls-53" x="159.33" y="0">s</tspan><tspan class="cls-70" x="163.67" y="0"> </tspan><tspan x="166.69" y="0">e</tspan><tspan class="cls-48" x="171.95" y="0">q</tspan><tspan class="cls-26" x="177.31" y="0">u</tspan><tspan class="cls-45" x="182.69" y="0">i</tspan><tspan class="cls-47" x="184.86" y="0">v</tspan><tspan class="cls-31" x="189.7" y="0">a</tspan><tspan class="cls-70" x="194.77" y="0">l</tspan><tspan class="cls-24" x="196.94" y="0">e</tspan><tspan class="cls-26" x="202.15" y="0">n</tspan><tspan class="cls-53" x="207.53" y="0">te</tspan><tspan class="cls-70" x="215.9" y="0"> </tspan><tspan class="cls-35" x="218.92" y="0">a</tspan><tspan class="cls-53" x="223.98" y="0">l </tspan><tspan class="cls-34" x="229.15" y="0">p</tspan><tspan class="cls-21" x="234.65" y="0">o</tspan><tspan class="cls-3" x="239.98" y="0">l</tspan><tspan class="cls-59" x="242.07" y="0">i</tspan><tspan class="cls-69" x="244.17" y="0">no</tspan><tspan class="cls-6" x="254.98" y="0">m</tspan><tspan class="cls-32" x="263.2" y="0">i</tspan><tspan class="cls-11" x="265.35" y="0">o</tspan><tspan x="270.67" y="0"> </tspan></text>
  <text class="cls-17" transform="translate(273.39 84.23)"><tspan class="cls-6" x="0" y="0">p</tspan><tspan class="cls-66" x="5.51" y="0">(</tspan><tspan class="cls-50" x="7.46" y="0">x</tspan><tspan x="11.51" y="0">)</tspan></text>
  <text class="cls-18" transform="translate(292.84 84.23)"><tspan class="cls-11" x="0" y="0"> </tspan><tspan class="cls-43" x="3.01" y="0">u</tspan><tspan class="cls-11" x="8.45" y="0">t</tspan><tspan class="cls-3" x="11.69" y="0">il</tspan><tspan class="cls-76" x="15.86" y="0">i</tspan><tspan class="cls-51" x="17.92" y="0">z</tspan><tspan class="cls-21" x="22.29" y="0">ad</tspan><tspan class="cls-53" x="32.87" y="0">o</tspan><tspan class="cls-11" x="38.18" y="0"> </tspan><tspan class="cls-63" x="41.2" y="0">p</tspan><tspan class="cls-28" x="46.63" y="0">a</tspan><tspan class="cls-55" x="51.71" y="0">r</tspan><tspan class="cls-53" x="55.17" y="0">a</tspan><tspan class="cls-11" x="60.29" y="0"> </tspan><tspan class="cls-43" x="63.31" y="0">v</tspan><tspan class="cls-59" x="68.15" y="0">a</tspan><tspan class="cls-69" x="73.22" y="0">lor</tspan><tspan x="84.24" y="0">e</tspan><tspan class="cls-44" x="89.5" y="0">s </tspan><tspan class="cls-53" x="96.87" y="0">d</tspan><tspan class="cls-11" x="102.28" y="0">e</tspan><tspan x="107.43" y="0"> </tspan></text>
  <text class="cls-17" transform="translate(403.15 84.23)"><tspan x="0" y="0">x</tspan></text>
  <text class="cls-18" transform="translate(408.79 84.23)"><tspan class="cls-11" x="0" y="0"> </tspan><tspan class="cls-6" x="3.01" y="0">d</tspan><tspan class="cls-11" x="8.36" y="0">i</tspan><tspan class="cls-39" x="10.54" y="0">s</tspan><tspan class="cls-44" x="14.99" y="0">t</tspan><tspan class="cls-59" x="18.23" y="0">i</tspan><tspan class="cls-58" x="20.33" y="0">n</tspan><tspan class="cls-21" x="25.72" y="0">t</tspan><tspan class="cls-7" x="28.96" y="0">o</tspan><tspan class="cls-11" x="34.33" y="0">s </tspan><tspan class="cls-53" x="41.7" y="0">d</tspan><tspan class="cls-11" x="47.11" y="0">e</tspan><tspan class="cls-53" x="52.26" y="0"> </tspan><tspan class="cls-5" x="55.26" y="0">0</tspan><tspan x="60.4" y="0">?</tspan></text>
  <line class="cls-64" x1="298.86" y1="114.4" x2="317.33" y2="114.4"/>
  <text class="cls-17" transform="translate(318.61 117.48)"><tspan x="0" y="0">x</tspan></text>
  <text class="cls-19" transform="translate(324.41 115.16)"><tspan x="0" y="0">4</tspan></text>
  <text class="cls-18" transform="translate(333.09 117.49)"><tspan x="0" y="0">–</tspan></text>
  <text class="cls-18" transform="translate(348.43 110.81)"><tspan class="cls-29" x="0" y="0">1</tspan><tspan x="5.21" y="0">2</tspan></text>
  <text class="cls-18" transform="translate(345.72 125.52)"><tspan class="cls-23" x="0" y="0">1</tspan><tspan class="cls-74" x="5.03" y="0">0</tspan><tspan x="10.61" y="0">0</tspan></text>
  <line class="cls-64" x1="344.78" y1="114.4" x2="363.25" y2="114.4"/>
  <text class="cls-18" transform="translate(394.16 125.52)"><tspan class="cls-23" x="0" y="0">1</tspan><tspan x="5.03" y="0">0</tspan></text>
  <line class="cls-64" x1="390.42" y1="114.4" x2="408.89" y2="114.4"/>
  <text class="cls-17" transform="translate(365.42 117.49)"><tspan x="0" y="0">x</tspan></text>
  <text class="cls-19" transform="translate(371.43 115.16)"><tspan x="0" y="0">3</tspan></text>
  <text class="cls-18" transform="translate(378.89 117.49)"><tspan x="0" y="0">+</tspan></text>
  <text class="cls-18" transform="translate(393.98 110.81)"><tspan class="cls-46" x="0" y="0">3</tspan><tspan x="5.41" y="0">6</tspan></text>
  <text class="cls-17" transform="translate(408.28 117.49)"><tspan x="0" y="0">x</tspan></text>
  <text class="cls-19" transform="translate(414.27 115.16)"><tspan x="0" y="0">2</tspan></text>
  <text class="cls-18" transform="translate(423.24 117.49)"><tspan x="0" y="0">+</tspan></text>
  <text class="cls-18" transform="translate(433.9 117.49)"><tspan class="cls-23" x="0" y="0">1</tspan><tspan x="5.03" y="0">0</tspan></text>
  <text class="cls-17" transform="translate(444.28 117.49)"><tspan x="0" y="0">x</tspan></text>
  <text class="cls-16" transform="translate(272.93 161.52)"><tspan class="cls-36" x="0" y="0">D</tspan><tspan x="7.33" y="0">.</tspan></text>
  <text class="cls-18" transform="translate(302.61 154.83)"><tspan class="cls-23" x="0" y="0">1</tspan><tspan x="5.03" y="0">0</tspan></text>
  <text class="cls-18" transform="translate(299.82 169.54)"><tspan class="cls-23" x="0" y="0">1</tspan><tspan class="cls-74" x="5.03" y="0">0</tspan><tspan x="10.61" y="0">0</tspan></text>
  <line class="cls-64" x1="298.86" y1="158.42" x2="317.33" y2="158.42"/>
  <text class="cls-18" transform="translate(348.52 169.54)"><tspan class="cls-23" x="0" y="0">1</tspan><tspan x="5.03" y="0">0</tspan></text>
  <text class="cls-17" transform="translate(318.62 161.51)"><tspan x="0" y="0">x</tspan></text>
  <text class="cls-19" transform="translate(324.41 159.18)"><tspan x="0" y="0">4</tspan></text>
  <text class="cls-18" transform="translate(333.09 161.51)"><tspan x="0" y="0">–</tspan></text>
  <text class="cls-18" transform="translate(345.8 154.83)"><tspan class="cls-29" x="0" y="0">1</tspan><tspan class="cls-71" x="5.21" y="0">2</tspan><tspan x="10.47" y="0">0</tspan></text>
  <line class="cls-64" x1="344.78" y1="158.42" x2="363.25" y2="158.42"/>
  <line class="cls-64" x1="390.42" y1="158.42" x2="408.89" y2="158.42"/>
  <text class="cls-18" transform="translate(394.16 169.54)"><tspan class="cls-23" x="0" y="0">1</tspan><tspan x="5.03" y="0">0</tspan></text>
  <text class="cls-17" transform="translate(365.43 161.51)"><tspan x="0" y="0">x</tspan></text>
  <text class="cls-19" transform="translate(371.43 159.18)"><tspan x="0" y="0">3</tspan></text>
  <text class="cls-18" transform="translate(378.89 161.51)"><tspan x="0" y="0">+</tspan></text>
  <text class="cls-18" transform="translate(393.98 154.83)"><tspan class="cls-46" x="0" y="0">3</tspan><tspan x="5.41" y="0">6</tspan></text>
  <text class="cls-17" transform="translate(408.28 161.51)"><tspan x="0" y="0">x</tspan></text>
  <text class="cls-19" transform="translate(414.27 159.18)"><tspan x="0" y="0">2</tspan></text>
  <text class="cls-18" transform="translate(423.24 161.51)"><tspan x="0" y="0">+</tspan></text>
  <text class="cls-18" transform="translate(433.9 161.51)"><tspan class="cls-23" x="0" y="0">1</tspan><tspan x="5.03" y="0">0</tspan></text>
  <text class="cls-17" transform="translate(444.28 161.51)"><tspan x="0" y="0">x</tspan></text>
</svg>